<?xml version="1.0" encoding="UTF-8" standalone="no"?>
<!DOCTYPE svg PUBLIC "-//W3C//DTD SVG 1.1//EN"
 "http://www.w3.org/Graphics/SVG/1.1/DTD/svg11.dtd">
<!-- Generated by graphviz version 2.48.0 (20210717.1556)
 -->
<!-- Title: risc_v_assembler::process Pages: 1 -->
<svg width="515pt" height="104pt"
 viewBox="0.00 0.00 515.00 104.00" xmlns="http://www.w3.org/2000/svg" xmlns:xlink="http://www.w3.org/1999/xlink">
<g id="graph0" class="graph" transform="scale(1 1) rotate(0) translate(4 100)">
<title>risc_v_assembler::process</title>
<polygon fill="white" stroke="transparent" points="-4,4 -4,-100 511,-100 511,4 -4,4"/>
<!-- Node1 -->
<g id="node1" class="node">
<title>Node1</title>
<g id="a_node1"><a xlink:title="process() assembles the machine code line by line and exports to a file in hex NOT Executable.">
<polygon fill="#bfbfbf" stroke="black" points="0,-57.5 0,-76.5 132,-76.5 132,-57.5 0,-57.5"/>
<text text-anchor="middle" x="66" y="-64.5" font-family="Helvetica,sans-Serif" font-size="10.00">risc_v_assembler::process</text>
</a>
</g>
</g>
<!-- Node2 -->
<g id="node2" class="node">
<title>Node2</title>
<g id="a_node2"><a xlink:href="classrisc__v__assembler.html#a265c1b04726d2f47d7290652a47205f9" target="_top" xlink:title="makeLabel() adds a label to branch/jump to.">
<polygon fill="white" stroke="black" points="170.5,-76.5 170.5,-95.5 315.5,-95.5 315.5,-76.5 170.5,-76.5"/>
<text text-anchor="middle" x="243" y="-83.5" font-family="Helvetica,sans-Serif" font-size="10.00">risc_v_assembler::makeLabel</text>
</a>
</g>
</g>
<!-- Node1&#45;&gt;Node2 -->
<g id="edge1" class="edge">
<title>Node1&#45;&gt;Node2</title>
<path fill="none" stroke="midnightblue" d="M132.16,-74.07C141.3,-75.07 150.78,-76.1 160.18,-77.12"/>
<polygon fill="midnightblue" stroke="midnightblue" points="160,-80.62 170.32,-78.22 160.75,-73.66 160,-80.62"/>
</g>
<!-- Node3 -->
<g id="node3" class="node">
<title>Node3</title>
<g id="a_node3"><a xlink:href="classrisc__v__assembler.html#abcb8fd769b23409aab48bbcc467d1af3" target="_top" xlink:title="processLine() assembles the machine code for one line.">
<polygon fill="white" stroke="black" points="168,-38.5 168,-57.5 318,-57.5 318,-38.5 168,-38.5"/>
<text text-anchor="middle" x="243" y="-45.5" font-family="Helvetica,sans-Serif" font-size="10.00">risc_v_assembler::processLine</text>
</a>
</g>
</g>
<!-- Node1&#45;&gt;Node3 -->
<g id="edge2" class="edge">
<title>Node1&#45;&gt;Node3</title>
<path fill="none" stroke="midnightblue" d="M132.16,-59.93C140.55,-59.02 149.22,-58.07 157.85,-57.14"/>
<polygon fill="midnightblue" stroke="midnightblue" points="158.38,-60.6 167.94,-56.04 157.62,-53.64 158.38,-60.6"/>
</g>
<!-- Node4 -->
<g id="node4" class="node">
<title>Node4</title>
<g id="a_node4"><a xlink:href="classrisc__v__assembler.html#a3f94e3738307c3bced32d5d7084ede96" target="_top" xlink:title="findLabelPos() gets the location of the label that was branched/jumped to.">
<polygon fill="white" stroke="black" points="354,-76.5 354,-95.5 507,-95.5 507,-76.5 354,-76.5"/>
<text text-anchor="middle" x="430.5" y="-83.5" font-family="Helvetica,sans-Serif" font-size="10.00">risc_v_assembler::findLabelPos</text>
</a>
</g>
</g>
<!-- Node3&#45;&gt;Node4 -->
<g id="edge3" class="edge">
<title>Node3&#45;&gt;Node4</title>
<path fill="none" stroke="midnightblue" d="M290.81,-57.59C315.84,-62.72 346.84,-69.07 373.18,-74.46"/>
<polygon fill="midnightblue" stroke="midnightblue" points="372.53,-77.9 383.03,-76.48 373.93,-71.04 372.53,-77.9"/>
</g>
<!-- Node5 -->
<g id="node5" class="node">
<title>Node5</title>
<g id="a_node5"><a xlink:href="classrisc__v__assembler.html#abc0fbceb7343e60b591cf790f01dc976" target="_top" xlink:title="getOpcode() compares a string with an instruction list to determine what type it is and the base opco...">
<polygon fill="white" stroke="black" points="358,-38.5 358,-57.5 503,-57.5 503,-38.5 358,-38.5"/>
<text text-anchor="middle" x="430.5" y="-45.5" font-family="Helvetica,sans-Serif" font-size="10.00">risc_v_assembler::getOpcode</text>
</a>
</g>
</g>
<!-- Node3&#45;&gt;Node5 -->
<g id="edge4" class="edge">
<title>Node3&#45;&gt;Node5</title>
<path fill="none" stroke="midnightblue" d="M318.11,-48C327.85,-48 337.87,-48 347.73,-48"/>
<polygon fill="midnightblue" stroke="midnightblue" points="347.92,-51.5 357.92,-48 347.92,-44.5 347.92,-51.5"/>
</g>
<!-- Node6 -->
<g id="node6" class="node">
<title>Node6</title>
<g id="a_node6"><a xlink:href="classrisc__v__assembler.html#a6f0b326bd879010c5e1f6f2ef0a83838" target="_top" xlink:title="getRegister() is a function that interprets strings and gives the corresponding register out.">
<polygon fill="white" stroke="black" points="357,-0.5 357,-19.5 504,-19.5 504,-0.5 357,-0.5"/>
<text text-anchor="middle" x="430.5" y="-7.5" font-family="Helvetica,sans-Serif" font-size="10.00">risc_v_assembler::getRegister</text>
</a>
</g>
</g>
<!-- Node3&#45;&gt;Node6 -->
<g id="edge5" class="edge">
<title>Node3&#45;&gt;Node6</title>
<path fill="none" stroke="midnightblue" d="M290.81,-38.41C315.84,-33.28 346.84,-26.93 373.18,-21.54"/>
<polygon fill="midnightblue" stroke="midnightblue" points="373.93,-24.96 383.03,-19.52 372.53,-18.1 373.93,-24.96"/>
</g>
</g>
</svg>
