<?xml version="1.0" encoding="UTF-8" standalone="no"?>
<!DOCTYPE svg PUBLIC "-//W3C//DTD SVG 1.1//EN"
 "http://www.w3.org/Graphics/SVG/1.1/DTD/svg11.dtd">
<!-- Generated by graphviz version 2.48.0 (20210717.1556)
 -->
<!-- Title: risc_v_assembler::getRegister Pages: 1 -->
<svg width="583pt" height="28pt"
 viewBox="0.00 0.00 583.00 28.00" xmlns="http://www.w3.org/2000/svg" xmlns:xlink="http://www.w3.org/1999/xlink">
<g id="graph0" class="graph" transform="scale(1 1) rotate(0) translate(4 24)">
<title>risc_v_assembler::getRegister</title>
<polygon fill="white" stroke="transparent" points="-4,4 -4,-24 579,-24 579,4 -4,4"/>
<!-- Node1 -->
<g id="node1" class="node">
<title>Node1</title>
<g id="a_node1"><a xlink:title="getRegister is a function that interprets strings and gives the corresponding register out.">
<polygon fill="#bfbfbf" stroke="black" points="428,-0.5 428,-19.5 575,-19.5 575,-0.5 428,-0.5"/>
<text text-anchor="middle" x="501.5" y="-7.5" font-family="Helvetica,sans-Serif" font-size="10.00">risc_v_assembler::getRegister</text>
</a>
</g>
</g>
<!-- Node2 -->
<g id="node2" class="node">
<title>Node2</title>
<g id="a_node2"><a xlink:href="classrisc__v__assembler.html#abcb8fd769b23409aab48bbcc467d1af3" target="_top" xlink:title=" ">
<polygon fill="white" stroke="black" points="242,-0.5 242,-19.5 392,-19.5 392,-0.5 242,-0.5"/>
<text text-anchor="middle" x="317" y="-7.5" font-family="Helvetica,sans-Serif" font-size="10.00">risc_v_assembler::processLine</text>
</a>
</g>
</g>
<!-- Node1&#45;&gt;Node2 -->
<g id="edge1" class="edge">
<title>Node1&#45;&gt;Node2</title>
<path fill="none" stroke="midnightblue" d="M417.59,-10C409.12,-10 400.56,-10 392.19,-10"/>
<polygon fill="midnightblue" stroke="midnightblue" points="417.85,-13.5 427.85,-10 417.85,-6.5 417.85,-13.5"/>
</g>
<!-- Node3 -->
<g id="node3" class="node">
<title>Node3</title>
<g id="a_node3"><a xlink:href="classrisc__v__assembler.html#a4210472501398d94d4f40aa3e73b5c94" target="_top" xlink:title=" ">
<polygon fill="white" stroke="black" points="74,-0.5 74,-19.5 206,-19.5 206,-0.5 74,-0.5"/>
<text text-anchor="middle" x="140" y="-7.5" font-family="Helvetica,sans-Serif" font-size="10.00">risc_v_assembler::process</text>
</a>
</g>
</g>
<!-- Node2&#45;&gt;Node3 -->
<g id="edge2" class="edge">
<title>Node2&#45;&gt;Node3</title>
<path fill="none" stroke="midnightblue" d="M231.74,-10C223.16,-10 214.53,-10 206.19,-10"/>
<polygon fill="midnightblue" stroke="midnightblue" points="231.78,-13.5 241.78,-10 231.78,-6.5 231.78,-13.5"/>
</g>
<!-- Node4 -->
<g id="node4" class="node">
<title>Node4</title>
<g id="a_node4"><a xlink:href="main_8cpp.html#a0ddf1224851353fc92bfbff6f499fa97" target="_top" xlink:title=" ">
<polygon fill="white" stroke="black" points="0,-0.5 0,-19.5 38,-19.5 38,-0.5 0,-0.5"/>
<text text-anchor="middle" x="19" y="-7.5" font-family="Helvetica,sans-Serif" font-size="10.00">main</text>
</a>
</g>
</g>
<!-- Node3&#45;&gt;Node4 -->
<g id="edge3" class="edge">
<title>Node3&#45;&gt;Node4</title>
<path fill="none" stroke="midnightblue" d="M63.68,-10C54.38,-10 45.65,-10 38.46,-10"/>
<polygon fill="midnightblue" stroke="midnightblue" points="63.93,-13.5 73.93,-10 63.93,-6.5 63.93,-13.5"/>
</g>
</g>
</svg>
