<?xml version="1.0" encoding="UTF-8" standalone="no"?>
<!DOCTYPE svg PUBLIC "-//W3C//DTD SVG 1.1//EN"
 "http://www.w3.org/Graphics/SVG/1.1/DTD/svg11.dtd">
<!-- Generated by graphviz version 2.48.0 (20210717.1556)
 -->
<!-- Title: risc_v_assembler::processLine Pages: 1 -->
<svg width="347pt" height="104pt"
 viewBox="0.00 0.00 347.00 104.00" xmlns="http://www.w3.org/2000/svg" xmlns:xlink="http://www.w3.org/1999/xlink">
<g id="graph0" class="graph" transform="scale(1 1) rotate(0) translate(4 100)">
<title>risc_v_assembler::processLine</title>
<polygon fill="white" stroke="transparent" points="-4,4 -4,-100 343,-100 343,4 -4,4"/>
<!-- Node1 -->
<g id="node1" class="node">
<title>Node1</title>
<g id="a_node1"><a xlink:title="processLine() assembles the machine code for one line.">
<polygon fill="#bfbfbf" stroke="black" points="0,-38.5 0,-57.5 150,-57.5 150,-38.5 0,-38.5"/>
<text text-anchor="middle" x="75" y="-45.5" font-family="Helvetica,sans-Serif" font-size="10.00">risc_v_assembler::processLine</text>
</a>
</g>
</g>
<!-- Node2 -->
<g id="node2" class="node">
<title>Node2</title>
<g id="a_node2"><a xlink:href="classrisc__v__assembler.html#a3f94e3738307c3bced32d5d7084ede96" target="_top" xlink:title="findLabelPos() gets the location of the label that was branched/jumped to.">
<polygon fill="white" stroke="black" points="186,-76.5 186,-95.5 339,-95.5 339,-76.5 186,-76.5"/>
<text text-anchor="middle" x="262.5" y="-83.5" font-family="Helvetica,sans-Serif" font-size="10.00">risc_v_assembler::findLabelPos</text>
</a>
</g>
</g>
<!-- Node1&#45;&gt;Node2 -->
<g id="edge1" class="edge">
<title>Node1&#45;&gt;Node2</title>
<path fill="none" stroke="midnightblue" d="M122.81,-57.59C147.84,-62.72 178.84,-69.07 205.18,-74.46"/>
<polygon fill="midnightblue" stroke="midnightblue" points="204.53,-77.9 215.03,-76.48 205.93,-71.04 204.53,-77.9"/>
</g>
<!-- Node3 -->
<g id="node3" class="node">
<title>Node3</title>
<g id="a_node3"><a xlink:href="classrisc__v__assembler.html#abc0fbceb7343e60b591cf790f01dc976" target="_top" xlink:title="getOpcode() compares a string with an instruction list to determine what type it is and the base opco...">
<polygon fill="white" stroke="black" points="190,-38.5 190,-57.5 335,-57.5 335,-38.5 190,-38.5"/>
<text text-anchor="middle" x="262.5" y="-45.5" font-family="Helvetica,sans-Serif" font-size="10.00">risc_v_assembler::getOpcode</text>
</a>
</g>
</g>
<!-- Node1&#45;&gt;Node3 -->
<g id="edge2" class="edge">
<title>Node1&#45;&gt;Node3</title>
<path fill="none" stroke="midnightblue" d="M150.11,-48C159.85,-48 169.87,-48 179.73,-48"/>
<polygon fill="midnightblue" stroke="midnightblue" points="179.92,-51.5 189.92,-48 179.92,-44.5 179.92,-51.5"/>
</g>
<!-- Node4 -->
<g id="node4" class="node">
<title>Node4</title>
<g id="a_node4"><a xlink:href="classrisc__v__assembler.html#a6f0b326bd879010c5e1f6f2ef0a83838" target="_top" xlink:title="getRegister() is a function that interprets strings and gives the corresponding register out.">
<polygon fill="white" stroke="black" points="189,-0.5 189,-19.5 336,-19.5 336,-0.5 189,-0.5"/>
<text text-anchor="middle" x="262.5" y="-7.5" font-family="Helvetica,sans-Serif" font-size="10.00">risc_v_assembler::getRegister</text>
</a>
</g>
</g>
<!-- Node1&#45;&gt;Node4 -->
<g id="edge3" class="edge">
<title>Node1&#45;&gt;Node4</title>
<path fill="none" stroke="midnightblue" d="M122.81,-38.41C147.84,-33.28 178.84,-26.93 205.18,-21.54"/>
<polygon fill="midnightblue" stroke="midnightblue" points="205.93,-24.96 215.03,-19.52 204.53,-18.1 205.93,-24.96"/>
</g>
</g>
</svg>
