<?xml version="1.0" encoding="UTF-8" standalone="no"?>
<!DOCTYPE svg PUBLIC "-//W3C//DTD SVG 1.1//EN"
 "http://www.w3.org/Graphics/SVG/1.1/DTD/svg11.dtd">
<!-- Generated by graphviz version 2.48.0 (20210717.1556)
 -->
<!-- Title: processLine Pages: 1 -->
<svg width="185pt" height="104pt"
 viewBox="0.00 0.00 185.00 104.00" xmlns="http://www.w3.org/2000/svg" xmlns:xlink="http://www.w3.org/1999/xlink">
<g id="graph0" class="graph" transform="scale(1 1) rotate(0) translate(4 100)">
<title>processLine</title>
<polygon fill="white" stroke="transparent" points="-4,4 -4,-100 181,-100 181,4 -4,4"/>
<!-- Node1 -->
<g id="node1" class="node">
<title>Node1</title>
<g id="a_node1"><a xlink:title=" ">
<polygon fill="#bfbfbf" stroke="black" points="0,-38.5 0,-57.5 69,-57.5 69,-38.5 0,-38.5"/>
<text text-anchor="middle" x="34.5" y="-45.5" font-family="Helvetica,sans-Serif" font-size="10.00">processLine</text>
</a>
</g>
</g>
<!-- Node2 -->
<g id="node2" class="node">
<title>Node2</title>
<g id="a_node2"><a xlink:href="main_8cpp.html#ac58a45b704cd4c5094b1279794b829db" target="_top" xlink:title=" ">
<polygon fill="white" stroke="black" points="105,-76.5 105,-95.5 177,-95.5 177,-76.5 105,-76.5"/>
<text text-anchor="middle" x="141" y="-83.5" font-family="Helvetica,sans-Serif" font-size="10.00">findLabelPos</text>
</a>
</g>
</g>
<!-- Node1&#45;&gt;Node2 -->
<g id="edge1" class="edge">
<title>Node1&#45;&gt;Node2</title>
<path fill="none" stroke="midnightblue" d="M61.87,-57.59C74.62,-62.22 90.11,-67.86 103.93,-72.89"/>
<polygon fill="midnightblue" stroke="midnightblue" points="103.04,-76.29 113.64,-76.41 105.44,-69.71 103.04,-76.29"/>
</g>
<!-- Node3 -->
<g id="node3" class="node">
<title>Node3</title>
<g id="a_node3"><a xlink:href="main_8cpp.html#ab2648685830fefed038865d3f3d7e019" target="_top" xlink:title=" ">
<polygon fill="white" stroke="black" points="109,-38.5 109,-57.5 173,-57.5 173,-38.5 109,-38.5"/>
<text text-anchor="middle" x="141" y="-45.5" font-family="Helvetica,sans-Serif" font-size="10.00">getOpcode</text>
</a>
</g>
</g>
<!-- Node1&#45;&gt;Node3 -->
<g id="edge2" class="edge">
<title>Node1&#45;&gt;Node3</title>
<path fill="none" stroke="midnightblue" d="M69.14,-48C78.62,-48 89.03,-48 98.89,-48"/>
<polygon fill="midnightblue" stroke="midnightblue" points="98.91,-51.5 108.91,-48 98.91,-44.5 98.91,-51.5"/>
</g>
<!-- Node4 -->
<g id="node4" class="node">
<title>Node4</title>
<g id="a_node4"><a xlink:href="main_8cpp.html#a171d54920772ac2cbfc5765ff1b43d1f" target="_top" xlink:title=" ">
<polygon fill="white" stroke="black" points="108,-0.5 108,-19.5 174,-19.5 174,-0.5 108,-0.5"/>
<text text-anchor="middle" x="141" y="-7.5" font-family="Helvetica,sans-Serif" font-size="10.00">getRegister</text>
</a>
</g>
</g>
<!-- Node1&#45;&gt;Node4 -->
<g id="edge3" class="edge">
<title>Node1&#45;&gt;Node4</title>
<path fill="none" stroke="midnightblue" d="M61.87,-38.41C74.62,-33.78 90.11,-28.14 103.93,-23.11"/>
<polygon fill="midnightblue" stroke="midnightblue" points="105.44,-26.29 113.64,-19.59 103.04,-19.71 105.44,-26.29"/>
</g>
</g>
</svg>
