<?xml version="1.0" encoding="UTF-8" standalone="no"?>
<!DOCTYPE svg PUBLIC "-//W3C//DTD SVG 1.1//EN"
 "http://www.w3.org/Graphics/SVG/1.1/DTD/svg11.dtd">
<!-- Generated by graphviz version 2.48.0 (20210717.1556)
 -->
<!-- Title: main.cpp Pages: 1 -->
<svg width="438pt" height="84pt"
 viewBox="0.00 0.00 438.00 84.00" xmlns="http://www.w3.org/2000/svg" xmlns:xlink="http://www.w3.org/1999/xlink">
<g id="graph0" class="graph" transform="scale(1 1) rotate(0) translate(4 80)">
<title>main.cpp</title>
<polygon fill="white" stroke="transparent" points="-4,4 -4,-80 434,-80 434,4 -4,4"/>
<!-- Node1 -->
<g id="node1" class="node">
<title>Node1</title>
<g id="a_node1"><a xlink:title="This is the heart of the RISC&#45;V Assembler.">
<polygon fill="#bfbfbf" stroke="black" points="197.5,-56.5 197.5,-75.5 253.5,-75.5 253.5,-56.5 197.5,-56.5"/>
<text text-anchor="middle" x="225.5" y="-63.5" font-family="Helvetica,sans-Serif" font-size="10.00">main.cpp</text>
</a>
</g>
</g>
<!-- Node2 -->
<g id="node2" class="node">
<title>Node2</title>
<g id="a_node2"><a xlink:title=" ">
<polygon fill="white" stroke="#bfbfbf" points="0,-0.5 0,-19.5 49,-19.5 49,-0.5 0,-0.5"/>
<text text-anchor="middle" x="24.5" y="-7.5" font-family="Helvetica,sans-Serif" font-size="10.00">fstream</text>
</a>
</g>
</g>
<!-- Node1&#45;&gt;Node2 -->
<g id="edge1" class="edge">
<title>Node1&#45;&gt;Node2</title>
<path fill="none" stroke="midnightblue" d="M197.13,-57.38C160.87,-47.64 98.14,-30.78 59.11,-20.3"/>
<polygon fill="midnightblue" stroke="midnightblue" points="59.82,-16.86 49.25,-17.65 58,-23.62 59.82,-16.86"/>
</g>
<!-- Node3 -->
<g id="node3" class="node">
<title>Node3</title>
<g id="a_node3"><a xlink:title=" ">
<polygon fill="white" stroke="#bfbfbf" points="67.5,-0.5 67.5,-19.5 121.5,-19.5 121.5,-0.5 67.5,-0.5"/>
<text text-anchor="middle" x="94.5" y="-7.5" font-family="Helvetica,sans-Serif" font-size="10.00">iostream</text>
</a>
</g>
</g>
<!-- Node1&#45;&gt;Node3 -->
<g id="edge2" class="edge">
<title>Node1&#45;&gt;Node3</title>
<path fill="none" stroke="midnightblue" d="M204.74,-56.44C183.18,-47.56 149.24,-33.56 124.71,-23.45"/>
<polygon fill="midnightblue" stroke="midnightblue" points="125.74,-20.09 115.16,-19.52 123.07,-26.56 125.74,-20.09"/>
</g>
<!-- Node4 -->
<g id="node4" class="node">
<title>Node4</title>
<g id="a_node4"><a xlink:title=" ">
<polygon fill="white" stroke="#bfbfbf" points="139.5,-0.5 139.5,-19.5 185.5,-19.5 185.5,-0.5 139.5,-0.5"/>
<text text-anchor="middle" x="162.5" y="-7.5" font-family="Helvetica,sans-Serif" font-size="10.00">cstdint</text>
</a>
</g>
</g>
<!-- Node1&#45;&gt;Node4 -->
<g id="edge3" class="edge">
<title>Node1&#45;&gt;Node4</title>
<path fill="none" stroke="midnightblue" d="M215.38,-56.32C205.97,-48.26 191.76,-36.08 180.43,-26.37"/>
<polygon fill="midnightblue" stroke="midnightblue" points="182.68,-23.68 172.81,-19.83 178.12,-29 182.68,-23.68"/>
</g>
<!-- Node5 -->
<g id="node5" class="node">
<title>Node5</title>
<g id="a_node5"><a xlink:title=" ">
<polygon fill="white" stroke="#bfbfbf" points="204,-0.5 204,-19.5 247,-19.5 247,-0.5 204,-0.5"/>
<text text-anchor="middle" x="225.5" y="-7.5" font-family="Helvetica,sans-Serif" font-size="10.00">cstdio</text>
</a>
</g>
</g>
<!-- Node1&#45;&gt;Node5 -->
<g id="edge4" class="edge">
<title>Node1&#45;&gt;Node5</title>
<path fill="none" stroke="midnightblue" d="M225.5,-56.08C225.5,-49.01 225.5,-38.86 225.5,-29.99"/>
<polygon fill="midnightblue" stroke="midnightblue" points="229,-29.75 225.5,-19.75 222,-29.75 229,-29.75"/>
</g>
<!-- Node6 -->
<g id="node6" class="node">
<title>Node6</title>
<g id="a_node6"><a xlink:title=" ">
<polygon fill="white" stroke="#bfbfbf" points="265.5,-0.5 265.5,-19.5 317.5,-19.5 317.5,-0.5 265.5,-0.5"/>
<text text-anchor="middle" x="291.5" y="-7.5" font-family="Helvetica,sans-Serif" font-size="10.00">sstream</text>
</a>
</g>
</g>
<!-- Node1&#45;&gt;Node6 -->
<g id="edge5" class="edge">
<title>Node1&#45;&gt;Node6</title>
<path fill="none" stroke="midnightblue" d="M236.1,-56.32C245.96,-48.26 260.85,-36.08 272.72,-26.37"/>
<polygon fill="midnightblue" stroke="midnightblue" points="275.18,-28.88 280.7,-19.83 270.75,-23.46 275.18,-28.88"/>
</g>
<!-- Node7 -->
<g id="node7" class="node">
<title>Node7</title>
<g id="a_node7"><a xlink:title=" ">
<polygon fill="white" stroke="#bfbfbf" points="336,-0.5 336,-19.5 377,-19.5 377,-0.5 336,-0.5"/>
<text text-anchor="middle" x="356.5" y="-7.5" font-family="Helvetica,sans-Serif" font-size="10.00">string</text>
</a>
</g>
</g>
<!-- Node1&#45;&gt;Node7 -->
<g id="edge6" class="edge">
<title>Node1&#45;&gt;Node7</title>
<path fill="none" stroke="midnightblue" d="M246.26,-56.44C267.82,-47.56 301.76,-33.56 326.29,-23.45"/>
<polygon fill="midnightblue" stroke="midnightblue" points="327.93,-26.56 335.84,-19.52 325.26,-20.09 327.93,-26.56"/>
</g>
<!-- Node8 -->
<g id="node8" class="node">
<title>Node8</title>
<g id="a_node8"><a xlink:title=" ">
<polygon fill="white" stroke="#bfbfbf" points="395,-0.5 395,-19.5 430,-19.5 430,-0.5 395,-0.5"/>
<text text-anchor="middle" x="412.5" y="-7.5" font-family="Helvetica,sans-Serif" font-size="10.00">map</text>
</a>
</g>
</g>
<!-- Node1&#45;&gt;Node8 -->
<g id="edge7" class="edge">
<title>Node1&#45;&gt;Node8</title>
<path fill="none" stroke="midnightblue" d="M253.57,-57.71C283.93,-49.7 333.94,-36.16 385.32,-20.24"/>
<polygon fill="midnightblue" stroke="midnightblue" points="386.42,-23.57 394.93,-17.25 384.34,-16.88 386.42,-23.57"/>
</g>
</g>
</svg>
