<?xml version="1.0" encoding="UTF-8" standalone="no"?>
<!DOCTYPE svg PUBLIC "-//W3C//DTD SVG 1.1//EN"
 "http://www.w3.org/Graphics/SVG/1.1/DTD/svg11.dtd">
<!-- Generated by graphviz version 2.48.0 (20210717.1556)
 -->
<!-- Title: main Pages: 1 -->
<svg width="589pt" height="104pt"
 viewBox="0.00 0.00 589.00 104.00" xmlns="http://www.w3.org/2000/svg" xmlns:xlink="http://www.w3.org/1999/xlink">
<g id="graph0" class="graph" transform="scale(1 1) rotate(0) translate(4 100)">
<title>main</title>
<polygon fill="white" stroke="transparent" points="-4,4 -4,-100 585,-100 585,4 -4,4"/>
<!-- Node1 -->
<g id="node1" class="node">
<title>Node1</title>
<g id="a_node1"><a xlink:title=" ">
<polygon fill="#bfbfbf" stroke="black" points="0,-57.5 0,-76.5 38,-76.5 38,-57.5 0,-57.5"/>
<text text-anchor="middle" x="19" y="-64.5" font-family="Helvetica,sans-Serif" font-size="10.00">main</text>
</a>
</g>
</g>
<!-- Node2 -->
<g id="node2" class="node">
<title>Node2</title>
<g id="a_node2"><a xlink:href="classrisc__v__assembler.html#a4210472501398d94d4f40aa3e73b5c94" target="_top" xlink:title="process() assembles the machine code line by line and exports to a file in hex NOT Executable.">
<polygon fill="white" stroke="black" points="74,-57.5 74,-76.5 206,-76.5 206,-57.5 74,-57.5"/>
<text text-anchor="middle" x="140" y="-64.5" font-family="Helvetica,sans-Serif" font-size="10.00">risc_v_assembler::process</text>
</a>
</g>
</g>
<!-- Node1&#45;&gt;Node2 -->
<g id="edge1" class="edge">
<title>Node1&#45;&gt;Node2</title>
<path fill="none" stroke="midnightblue" d="M38.07,-67C45.36,-67 54.29,-67 63.8,-67"/>
<polygon fill="midnightblue" stroke="midnightblue" points="63.87,-70.5 73.87,-67 63.87,-63.5 63.87,-70.5"/>
</g>
<!-- Node3 -->
<g id="node3" class="node">
<title>Node3</title>
<g id="a_node3"><a xlink:href="classrisc__v__assembler.html#a265c1b04726d2f47d7290652a47205f9" target="_top" xlink:title="makeLabel() adds a label to branch/jump to.">
<polygon fill="white" stroke="black" points="244.5,-76.5 244.5,-95.5 389.5,-95.5 389.5,-76.5 244.5,-76.5"/>
<text text-anchor="middle" x="317" y="-83.5" font-family="Helvetica,sans-Serif" font-size="10.00">risc_v_assembler::makeLabel</text>
</a>
</g>
</g>
<!-- Node2&#45;&gt;Node3 -->
<g id="edge2" class="edge">
<title>Node2&#45;&gt;Node3</title>
<path fill="none" stroke="midnightblue" d="M206.16,-74.07C215.3,-75.07 224.78,-76.1 234.18,-77.12"/>
<polygon fill="midnightblue" stroke="midnightblue" points="234,-80.62 244.32,-78.22 234.75,-73.66 234,-80.62"/>
</g>
<!-- Node4 -->
<g id="node4" class="node">
<title>Node4</title>
<g id="a_node4"><a xlink:href="classrisc__v__assembler.html#abcb8fd769b23409aab48bbcc467d1af3" target="_top" xlink:title="processLine() assembles the machine code for one line.">
<polygon fill="white" stroke="black" points="242,-38.5 242,-57.5 392,-57.5 392,-38.5 242,-38.5"/>
<text text-anchor="middle" x="317" y="-45.5" font-family="Helvetica,sans-Serif" font-size="10.00">risc_v_assembler::processLine</text>
</a>
</g>
</g>
<!-- Node2&#45;&gt;Node4 -->
<g id="edge3" class="edge">
<title>Node2&#45;&gt;Node4</title>
<path fill="none" stroke="midnightblue" d="M206.16,-59.93C214.55,-59.02 223.22,-58.07 231.85,-57.14"/>
<polygon fill="midnightblue" stroke="midnightblue" points="232.38,-60.6 241.94,-56.04 231.62,-53.64 232.38,-60.6"/>
</g>
<!-- Node5 -->
<g id="node5" class="node">
<title>Node5</title>
<g id="a_node5"><a xlink:href="classrisc__v__assembler.html#a3f94e3738307c3bced32d5d7084ede96" target="_top" xlink:title="findLabelPos() gets the location of the label that was branched/jumped to.">
<polygon fill="white" stroke="black" points="428,-76.5 428,-95.5 581,-95.5 581,-76.5 428,-76.5"/>
<text text-anchor="middle" x="504.5" y="-83.5" font-family="Helvetica,sans-Serif" font-size="10.00">risc_v_assembler::findLabelPos</text>
</a>
</g>
</g>
<!-- Node4&#45;&gt;Node5 -->
<g id="edge4" class="edge">
<title>Node4&#45;&gt;Node5</title>
<path fill="none" stroke="midnightblue" d="M364.81,-57.59C389.84,-62.72 420.84,-69.07 447.18,-74.46"/>
<polygon fill="midnightblue" stroke="midnightblue" points="446.53,-77.9 457.03,-76.48 447.93,-71.04 446.53,-77.9"/>
</g>
<!-- Node6 -->
<g id="node6" class="node">
<title>Node6</title>
<g id="a_node6"><a xlink:href="classrisc__v__assembler.html#abc0fbceb7343e60b591cf790f01dc976" target="_top" xlink:title="getOpcode() compares a string with an instruction list to determine what type it is and the base opco...">
<polygon fill="white" stroke="black" points="432,-38.5 432,-57.5 577,-57.5 577,-38.5 432,-38.5"/>
<text text-anchor="middle" x="504.5" y="-45.5" font-family="Helvetica,sans-Serif" font-size="10.00">risc_v_assembler::getOpcode</text>
</a>
</g>
</g>
<!-- Node4&#45;&gt;Node6 -->
<g id="edge5" class="edge">
<title>Node4&#45;&gt;Node6</title>
<path fill="none" stroke="midnightblue" d="M392.11,-48C401.85,-48 411.87,-48 421.73,-48"/>
<polygon fill="midnightblue" stroke="midnightblue" points="421.92,-51.5 431.92,-48 421.92,-44.5 421.92,-51.5"/>
</g>
<!-- Node7 -->
<g id="node7" class="node">
<title>Node7</title>
<g id="a_node7"><a xlink:href="classrisc__v__assembler.html#a6f0b326bd879010c5e1f6f2ef0a83838" target="_top" xlink:title="getRegister() is a function that interprets strings and gives the corresponding register out.">
<polygon fill="white" stroke="black" points="431,-0.5 431,-19.5 578,-19.5 578,-0.5 431,-0.5"/>
<text text-anchor="middle" x="504.5" y="-7.5" font-family="Helvetica,sans-Serif" font-size="10.00">risc_v_assembler::getRegister</text>
</a>
</g>
</g>
<!-- Node4&#45;&gt;Node7 -->
<g id="edge6" class="edge">
<title>Node4&#45;&gt;Node7</title>
<path fill="none" stroke="midnightblue" d="M364.81,-38.41C389.84,-33.28 420.84,-26.93 447.18,-21.54"/>
<polygon fill="midnightblue" stroke="midnightblue" points="447.93,-24.96 457.03,-19.52 446.53,-18.1 447.93,-24.96"/>
</g>
</g>
</svg>
