<?xml version="1.0" encoding="UTF-8" standalone="no"?>
<!DOCTYPE svg PUBLIC "-//W3C//DTD SVG 1.1//EN"
 "http://www.w3.org/Graphics/SVG/1.1/DTD/svg11.dtd">
<!-- Generated by graphviz version 2.48.0 (20210717.1556)
 -->
<!-- Title: main Pages: 1 -->
<svg width="259pt" height="104pt"
 viewBox="0.00 0.00 259.00 104.00" xmlns="http://www.w3.org/2000/svg" xmlns:xlink="http://www.w3.org/1999/xlink">
<g id="graph0" class="graph" transform="scale(1 1) rotate(0) translate(4 100)">
<title>main</title>
<polygon fill="white" stroke="transparent" points="-4,4 -4,-100 255,-100 255,4 -4,4"/>
<!-- Node1 -->
<g id="node1" class="node">
<title>Node1</title>
<g id="a_node1"><a xlink:title=" ">
<polygon fill="#bfbfbf" stroke="black" points="0,-57.5 0,-76.5 38,-76.5 38,-57.5 0,-57.5"/>
<text text-anchor="middle" x="19" y="-64.5" font-family="Helvetica,sans-Serif" font-size="10.00">main</text>
</a>
</g>
</g>
<!-- Node2 -->
<g id="node2" class="node">
<title>Node2</title>
<g id="a_node2"><a xlink:href="main_8cpp.html#ac173058753effe9010f828690505bfe9" target="_top" xlink:title=" ">
<polygon fill="white" stroke="black" points="76.5,-76.5 76.5,-95.5 140.5,-95.5 140.5,-76.5 76.5,-76.5"/>
<text text-anchor="middle" x="108.5" y="-83.5" font-family="Helvetica,sans-Serif" font-size="10.00">makeLabel</text>
</a>
</g>
</g>
<!-- Node1&#45;&gt;Node2 -->
<g id="edge1" class="edge">
<title>Node1&#45;&gt;Node2</title>
<path fill="none" stroke="midnightblue" d="M38.13,-70.94C46.39,-72.73 56.53,-74.93 66.48,-77.09"/>
<polygon fill="midnightblue" stroke="midnightblue" points="65.78,-80.52 76.29,-79.22 67.26,-73.68 65.78,-80.52"/>
</g>
<!-- Node3 -->
<g id="node3" class="node">
<title>Node3</title>
<g id="a_node3"><a xlink:href="main_8cpp.html#ac0aa95aba20b2a8ff85cfa8da87fbdb8" target="_top" xlink:title=" ">
<polygon fill="white" stroke="black" points="74,-38.5 74,-57.5 143,-57.5 143,-38.5 74,-38.5"/>
<text text-anchor="middle" x="108.5" y="-45.5" font-family="Helvetica,sans-Serif" font-size="10.00">processLine</text>
</a>
</g>
</g>
<!-- Node1&#45;&gt;Node3 -->
<g id="edge2" class="edge">
<title>Node1&#45;&gt;Node3</title>
<path fill="none" stroke="midnightblue" d="M38.13,-63.06C45.7,-61.42 54.86,-59.43 64,-57.45"/>
<polygon fill="midnightblue" stroke="midnightblue" points="64.8,-60.85 73.83,-55.31 63.32,-54.01 64.8,-60.85"/>
</g>
<!-- Node4 -->
<g id="node4" class="node">
<title>Node4</title>
<g id="a_node4"><a xlink:href="main_8cpp.html#ac58a45b704cd4c5094b1279794b829db" target="_top" xlink:title=" ">
<polygon fill="white" stroke="black" points="179,-76.5 179,-95.5 251,-95.5 251,-76.5 179,-76.5"/>
<text text-anchor="middle" x="215" y="-83.5" font-family="Helvetica,sans-Serif" font-size="10.00">findLabelPos</text>
</a>
</g>
</g>
<!-- Node3&#45;&gt;Node4 -->
<g id="edge3" class="edge">
<title>Node3&#45;&gt;Node4</title>
<path fill="none" stroke="midnightblue" d="M135.87,-57.59C148.62,-62.22 164.11,-67.86 177.93,-72.89"/>
<polygon fill="midnightblue" stroke="midnightblue" points="177.04,-76.29 187.64,-76.41 179.44,-69.71 177.04,-76.29"/>
</g>
<!-- Node5 -->
<g id="node5" class="node">
<title>Node5</title>
<g id="a_node5"><a xlink:href="main_8cpp.html#ab2648685830fefed038865d3f3d7e019" target="_top" xlink:title=" ">
<polygon fill="white" stroke="black" points="183,-38.5 183,-57.5 247,-57.5 247,-38.5 183,-38.5"/>
<text text-anchor="middle" x="215" y="-45.5" font-family="Helvetica,sans-Serif" font-size="10.00">getOpcode</text>
</a>
</g>
</g>
<!-- Node3&#45;&gt;Node5 -->
<g id="edge4" class="edge">
<title>Node3&#45;&gt;Node5</title>
<path fill="none" stroke="midnightblue" d="M143.14,-48C152.62,-48 163.03,-48 172.89,-48"/>
<polygon fill="midnightblue" stroke="midnightblue" points="172.91,-51.5 182.91,-48 172.91,-44.5 172.91,-51.5"/>
</g>
<!-- Node6 -->
<g id="node6" class="node">
<title>Node6</title>
<g id="a_node6"><a xlink:href="main_8cpp.html#a171d54920772ac2cbfc5765ff1b43d1f" target="_top" xlink:title=" ">
<polygon fill="white" stroke="black" points="182,-0.5 182,-19.5 248,-19.5 248,-0.5 182,-0.5"/>
<text text-anchor="middle" x="215" y="-7.5" font-family="Helvetica,sans-Serif" font-size="10.00">getRegister</text>
</a>
</g>
</g>
<!-- Node3&#45;&gt;Node6 -->
<g id="edge5" class="edge">
<title>Node3&#45;&gt;Node6</title>
<path fill="none" stroke="midnightblue" d="M135.87,-38.41C148.62,-33.78 164.11,-28.14 177.93,-23.11"/>
<polygon fill="midnightblue" stroke="midnightblue" points="179.44,-26.29 187.64,-19.59 177.04,-19.71 179.44,-26.29"/>
</g>
</g>
</svg>
