<?xml version="1.0" encoding="UTF-8" standalone="no"?>
<!DOCTYPE svg PUBLIC "-//W3C//DTD SVG 1.1//EN"
 "http://www.w3.org/Graphics/SVG/1.1/DTD/svg11.dtd">
<!-- Generated by graphviz version 2.49.0 (20210828.1703)
 -->
<!-- Title: main.cpp Pages: 1 -->
<svg width="502pt" height="84pt"
 viewBox="0.00 0.00 502.00 84.00" xmlns="http://www.w3.org/2000/svg" xmlns:xlink="http://www.w3.org/1999/xlink">
<g id="graph0" class="graph" transform="scale(1 1) rotate(0) translate(4 80)">
<title>main.cpp</title>
<polygon fill="white" stroke="transparent" points="-4,4 -4,-80 498,-80 498,4 -4,4"/>
<!-- Node1 -->
<g id="node1" class="node">
<title>Node1</title>
<g id="a_node1"><a xlink:title="This is the heart of the RISC&#45;V Assembler.">
<polygon fill="#bfbfbf" stroke="black" points="228.5,-56.5 228.5,-75.5 284.5,-75.5 284.5,-56.5 228.5,-56.5"/>
<text text-anchor="middle" x="256.5" y="-63.5" font-family="Helvetica,sans-Serif" font-size="10.00">main.cpp</text>
</a>
</g>
</g>
<!-- Node2 -->
<g id="node2" class="node">
<title>Node2</title>
<g id="a_node2"><a xlink:title=" ">
<polygon fill="white" stroke="#bfbfbf" points="0,-0.5 0,-19.5 49,-19.5 49,-0.5 0,-0.5"/>
<text text-anchor="middle" x="24.5" y="-7.5" font-family="Helvetica,sans-Serif" font-size="10.00">fstream</text>
</a>
</g>
</g>
<!-- Node1&#45;&gt;Node2 -->
<g id="edge1" class="edge">
<title>Node1&#45;&gt;Node2</title>
<path fill="none" stroke="midnightblue" d="M228.23,-58.9C191.54,-50.92 125.33,-36.27 59.12,-20.09"/>
<polygon fill="midnightblue" stroke="midnightblue" points="59.9,-16.67 49.36,-17.69 58.23,-23.47 59.9,-16.67"/>
</g>
<!-- Node3 -->
<g id="node3" class="node">
<title>Node3</title>
<g id="a_node3"><a xlink:title=" ">
<polygon fill="white" stroke="#bfbfbf" points="67.5,-0.5 67.5,-19.5 121.5,-19.5 121.5,-0.5 67.5,-0.5"/>
<text text-anchor="middle" x="94.5" y="-7.5" font-family="Helvetica,sans-Serif" font-size="10.00">iostream</text>
</a>
</g>
</g>
<!-- Node1&#45;&gt;Node3 -->
<g id="edge2" class="edge">
<title>Node1&#45;&gt;Node3</title>
<path fill="none" stroke="midnightblue" d="M230.83,-56.44C203.58,-47.36 160.32,-32.94 129.85,-22.78"/>
<polygon fill="midnightblue" stroke="midnightblue" points="130.64,-19.36 120.05,-19.52 128.43,-26 130.64,-19.36"/>
</g>
<!-- Node4 -->
<g id="node4" class="node">
<title>Node4</title>
<g id="a_node4"><a xlink:title=" ">
<polygon fill="white" stroke="#bfbfbf" points="139.5,-0.5 139.5,-19.5 185.5,-19.5 185.5,-0.5 139.5,-0.5"/>
<text text-anchor="middle" x="162.5" y="-7.5" font-family="Helvetica,sans-Serif" font-size="10.00">cstdint</text>
</a>
</g>
</g>
<!-- Node1&#45;&gt;Node4 -->
<g id="edge3" class="edge">
<title>Node1&#45;&gt;Node4</title>
<path fill="none" stroke="midnightblue" d="M241.4,-56.32C226.6,-47.82 203.81,-34.73 186.52,-24.8"/>
<polygon fill="midnightblue" stroke="midnightblue" points="187.98,-21.6 177.57,-19.65 184.49,-27.67 187.98,-21.6"/>
</g>
<!-- Node5 -->
<g id="node5" class="node">
<title>Node5</title>
<g id="a_node5"><a xlink:title=" ">
<polygon fill="white" stroke="#bfbfbf" points="204,-0.5 204,-19.5 247,-19.5 247,-0.5 204,-0.5"/>
<text text-anchor="middle" x="225.5" y="-7.5" font-family="Helvetica,sans-Serif" font-size="10.00">cstdio</text>
</a>
</g>
</g>
<!-- Node1&#45;&gt;Node5 -->
<g id="edge4" class="edge">
<title>Node1&#45;&gt;Node5</title>
<path fill="none" stroke="midnightblue" d="M251.38,-56.08C247.09,-48.61 240.84,-37.72 235.56,-28.52"/>
<polygon fill="midnightblue" stroke="midnightblue" points="238.54,-26.68 230.52,-19.75 232.47,-30.17 238.54,-26.68"/>
</g>
<!-- Node6 -->
<g id="node6" class="node">
<title>Node6</title>
<g id="a_node6"><a xlink:title=" ">
<polygon fill="white" stroke="#bfbfbf" points="265.5,-0.5 265.5,-19.5 311.5,-19.5 311.5,-0.5 265.5,-0.5"/>
<text text-anchor="middle" x="288.5" y="-7.5" font-family="Helvetica,sans-Serif" font-size="10.00">cctype</text>
</a>
</g>
</g>
<!-- Node1&#45;&gt;Node6 -->
<g id="edge5" class="edge">
<title>Node1&#45;&gt;Node6</title>
<path fill="none" stroke="midnightblue" d="M261.78,-56.08C266.21,-48.61 272.66,-37.72 278.12,-28.52"/>
<polygon fill="midnightblue" stroke="midnightblue" points="281.23,-30.14 283.31,-19.75 275.21,-26.57 281.23,-30.14"/>
</g>
<!-- Node7 -->
<g id="node7" class="node">
<title>Node7</title>
<g id="a_node7"><a xlink:title=" ">
<polygon fill="white" stroke="#bfbfbf" points="329.5,-0.5 329.5,-19.5 381.5,-19.5 381.5,-0.5 329.5,-0.5"/>
<text text-anchor="middle" x="355.5" y="-7.5" font-family="Helvetica,sans-Serif" font-size="10.00">sstream</text>
</a>
</g>
</g>
<!-- Node1&#45;&gt;Node7 -->
<g id="edge6" class="edge">
<title>Node1&#45;&gt;Node7</title>
<path fill="none" stroke="midnightblue" d="M272.41,-56.32C288.14,-47.74 312.44,-34.49 330.71,-24.52"/>
<polygon fill="midnightblue" stroke="midnightblue" points="332.53,-27.52 339.63,-19.65 329.18,-21.37 332.53,-27.52"/>
</g>
<!-- Node8 -->
<g id="node8" class="node">
<title>Node8</title>
<g id="a_node8"><a xlink:title=" ">
<polygon fill="white" stroke="#bfbfbf" points="400,-0.5 400,-19.5 441,-19.5 441,-0.5 400,-0.5"/>
<text text-anchor="middle" x="420.5" y="-7.5" font-family="Helvetica,sans-Serif" font-size="10.00">string</text>
</a>
</g>
</g>
<!-- Node1&#45;&gt;Node8 -->
<g id="edge7" class="edge">
<title>Node1&#45;&gt;Node8</title>
<path fill="none" stroke="midnightblue" d="M282.49,-56.44C311.7,-46.82 359.08,-31.22 390.02,-21.04"/>
<polygon fill="midnightblue" stroke="midnightblue" points="391.42,-24.26 399.83,-17.81 389.23,-17.61 391.42,-24.26"/>
</g>
<!-- Node9 -->
<g id="node9" class="node">
<title>Node9</title>
<g id="a_node9"><a xlink:title=" ">
<polygon fill="white" stroke="#bfbfbf" points="459,-0.5 459,-19.5 494,-19.5 494,-0.5 459,-0.5"/>
<text text-anchor="middle" x="476.5" y="-7.5" font-family="Helvetica,sans-Serif" font-size="10.00">map</text>
</a>
</g>
</g>
<!-- Node1&#45;&gt;Node9 -->
<g id="edge8" class="edge">
<title>Node1&#45;&gt;Node9</title>
<path fill="none" stroke="midnightblue" d="M284.69,-59.43C320.8,-52.09 385.48,-38.24 449.16,-20.17"/>
<polygon fill="midnightblue" stroke="midnightblue" points="450.31,-23.48 458.96,-17.35 448.38,-16.75 450.31,-23.48"/>
</g>
</g>
</svg>
